<!-- Generated by IcoMoon.io -->
<svg version="1.1" xmlns="http://www.w3.org/2000/svg" width="54" height="48" viewBox="0 0 54 48">
<title>users</title>
<path d="M36 36.122v-2.474c3.305-1.862 6-6.505 6-11.148 0-7.456 0-13.5-9-13.5s-9 6.044-9 13.5c0 4.643 2.695 9.286 6 11.148v2.474c-10.177 0.832-18 5.832-18 11.878h42c0-6.045-7.823-11.046-18-11.878z"></path>
<path d="M15.337 37.281c2.593-1.695 5.816-2.983 9.365-3.769-0.706-0.834-1.346-1.764-1.898-2.767-1.426-2.589-2.179-5.44-2.179-8.245 0-4.033 0-7.843 1.434-10.958 1.392-3.024 3.897-4.898 7.464-5.601-0.793-3.585-2.903-5.941-8.523-5.941-9 0-9 6.044-9 13.5 0 4.643 2.695 9.286 6 11.148v2.474c-10.177 0.832-18 5.832-18 11.878h13.078c0.681-0.605 1.434-1.18 2.259-1.719z"></path>
</svg>
