<svg aria-hidden="true" style="position: absolute; width: 0; height: 0; overflow: hidden;" version="1.1" xmlns="http://www.w3.org/2000/svg" xmlns:xlink="http://www.w3.org/1999/xlink">
<defs>
<symbol id="icon-stopwatch" viewBox="0 0 48 48">
<title>stopwatch</title>
<path d="M24 9.057v-3.057h6v-3c0-1.657-1.343-3-3-3h-9c-1.657 0-3 1.343-3 3v3h6v3.057c-10.069 0.766-18 9.178-18 19.443 0 10.77 8.73 19.5 19.5 19.5s19.5-8.73 19.5-19.5c0-10.265-7.931-18.677-18-19.443zM33.107 39.107c-2.833 2.833-6.6 4.393-10.607 4.393s-7.773-1.56-10.607-4.393c-2.833-2.833-4.393-6.6-4.393-10.607s1.56-7.773 4.393-10.607c2.721-2.721 6.302-4.266 10.13-4.385l-1.016 14.72c-0.087 1.232 0.584 1.772 1.492 1.772s1.58-0.54 1.492-1.772l-1.016-14.72c3.828 0.119 7.41 1.665 10.13 4.385 2.833 2.833 4.393 6.6 4.393 10.607s-1.56 7.773-4.393 10.607z"></path>
</symbol>
<symbol id="icon-users" viewBox="0 0 54 48">
<title>users</title>
<path d="M36 36.122v-2.474c3.305-1.862 6-6.505 6-11.148 0-7.456 0-13.5-9-13.5s-9 6.044-9 13.5c0 4.643 2.695 9.286 6 11.148v2.474c-10.177 0.832-18 5.832-18 11.878h42c0-6.045-7.823-11.046-18-11.878z"></path>
<path d="M15.337 37.281c2.593-1.695 5.816-2.983 9.365-3.769-0.706-0.834-1.346-1.764-1.898-2.767-1.426-2.589-2.179-5.44-2.179-8.245 0-4.033 0-7.843 1.434-10.958 1.392-3.024 3.897-4.898 7.464-5.601-0.793-3.585-2.903-5.941-8.523-5.941-9 0-9 6.044-9 13.5 0 4.643 2.695 9.286 6 11.148v2.474c-10.177 0.832-18 5.832-18 11.878h13.078c0.681-0.605 1.434-1.18 2.259-1.719z"></path>
</symbol>
<symbol id="icon-stats-bars" viewBox="0 0 48 48">
<title>stats-bars</title>
<path d="M0 39h48v6h-48zM6 27h6v9h-6zM15 15h6v21h-6zM24 24h6v12h-6zM33 6h6v30h-6z"></path>
</symbol>
</defs>
</svg>
